# SpaceBird battery module
mtllib battery_module.mtl
o BatteryModule
v -26.000 0.000 -21.000
v 26.000 0.000 -21.000
v 26.000 36.000 -21.000
v -26.000 36.000 -21.000
v -26.000 0.000 21.000
v 26.000 0.000 21.000
v 26.000 36.000 21.000
v -26.000 36.000 21.000
v -22.000 36.500 -17.000
v 22.000 36.500 -17.000
v 22.000 41.500 -17.000
v -22.000 41.500 -17.000
v -22.000 36.500 17.000
v 22.000 36.500 17.000
v 22.000 41.500 17.000
v -22.000 41.500 17.000
v -21.000 8.500 -23.500
v 21.000 8.500 -23.500
v 21.000 31.500 -23.500
v -21.000 31.500 -23.500
v -21.000 8.500 -20.500
v 21.000 8.500 -20.500
v 21.000 31.500 -20.500
v -21.000 31.500 -20.500
v -17.000 12.000 -24.600
v 17.000 12.000 -24.600
v 17.000 28.000 -24.600
v -17.000 28.000 -24.600
v -17.000 12.000 -23.400
v 17.000 12.000 -23.400
v 17.000 28.000 -23.400
v -17.000 28.000 -23.400
v -16.250 14.500 -25.500
v -11.750 14.500 -25.500
v -11.750 25.500 -25.500
v -16.250 25.500 -25.500
v -16.250 14.500 -24.500
v -11.750 14.500 -24.500
v -11.750 25.500 -24.500
v -16.250 25.500 -24.500
v -9.250 14.500 -25.500
v -4.750 14.500 -25.500
v -4.750 25.500 -25.500
v -9.250 25.500 -25.500
v -9.250 14.500 -24.500
v -4.750 14.500 -24.500
v -4.750 25.500 -24.500
v -9.250 25.500 -24.500
v -2.250 14.500 -25.500
v 2.250 14.500 -25.500
v 2.250 25.500 -25.500
v -2.250 25.500 -25.500
v -2.250 14.500 -24.500
v 2.250 14.500 -24.500
v 2.250 25.500 -24.500
v -2.250 25.500 -24.500
v 4.750 14.500 -25.500
v 9.250 14.500 -25.500
v 9.250 25.500 -25.500
v 4.750 25.500 -25.500
v 4.750 14.500 -24.500
v 9.250 14.500 -24.500
v 9.250 25.500 -24.500
v 4.750 25.500 -24.500
v 11.750 14.500 -25.500
v 16.250 14.500 -25.500
v 16.250 25.500 -25.500
v 11.750 25.500 -25.500
v 11.750 14.500 -24.500
v 16.250 14.500 -24.500
v 16.250 25.500 -24.500
v 11.750 25.500 -24.500
v 14.500 26.500 -25.500
v 19.500 26.500 -25.500
v 19.500 31.500 -25.500
v 14.500 31.500 -25.500
v 14.500 26.500 -24.500
v 19.500 26.500 -24.500
v 19.500 31.500 -24.500
v 14.500 31.500 -24.500
v -19.000 40.500 -6.000
v -7.000 40.500 -6.000
v -7.000 45.500 -6.000
v -19.000 45.500 -6.000
v -19.000 40.500 6.000
v -7.000 40.500 6.000
v -7.000 45.500 6.000
v -19.000 45.500 6.000
v -15.500 45.000 -2.500
v -10.500 45.000 -2.500
v -10.500 49.000 -2.500
v -15.500 49.000 -2.500
v -15.500 45.000 2.500
v -10.500 45.000 2.500
v -10.500 49.000 2.500
v -15.500 49.000 2.500
v 7.000 40.500 -6.000
v 19.000 40.500 -6.000
v 19.000 45.500 -6.000
v 7.000 45.500 -6.000
v 7.000 40.500 6.000
v 19.000 40.500 6.000
v 19.000 45.500 6.000
v 7.000 45.500 6.000
v 10.500 45.000 -2.500
v 15.500 45.000 -2.500
v 15.500 49.000 -2.500
v 10.500 49.000 -2.500
v 10.500 45.000 2.500
v 15.500 45.000 2.500
v 15.500 49.000 2.500
v 10.500 49.000 2.500
v -27.000 5.000 -18.000
v -23.000 5.000 -18.000
v -23.000 35.000 -18.000
v -27.000 35.000 -18.000
v -27.000 5.000 18.000
v -23.000 5.000 18.000
v -23.000 35.000 18.000
v -27.000 35.000 18.000
v 23.000 5.000 -18.000
v 27.000 5.000 -18.000
v 27.000 35.000 -18.000
v 23.000 35.000 -18.000
v 23.000 5.000 18.000
v 27.000 5.000 18.000
v 27.000 35.000 18.000
v 23.000 35.000 18.000
v -22.500 -2.000 -15.000
v -13.500 -2.000 -15.000
v -13.500 2.000 -15.000
v -22.500 2.000 -15.000
v -22.500 -2.000 15.000
v -13.500 -2.000 15.000
v -13.500 2.000 15.000
v -22.500 2.000 15.000
v 13.500 -2.000 -15.000
v 22.500 -2.000 -15.000
v 22.500 2.000 -15.000
v 13.500 2.000 -15.000
v 13.500 -2.000 15.000
v 22.500 -2.000 15.000
v 22.500 2.000 15.000
v 13.500 2.000 15.000
v -20.500 6.500 -23.500
v -17.500 6.500 -23.500
v -17.500 9.500 -23.500
v -20.500 9.500 -23.500
v -20.500 6.500 -22.500
v -17.500 6.500 -22.500
v -17.500 9.500 -22.500
v -20.500 9.500 -22.500
v -20.500 28.500 -23.500
v -17.500 28.500 -23.500
v -17.500 31.500 -23.500
v -20.500 31.500 -23.500
v -20.500 28.500 -22.500
v -17.500 28.500 -22.500
v -17.500 31.500 -22.500
v -20.500 31.500 -22.500
v 17.500 6.500 -23.500
v 20.500 6.500 -23.500
v 20.500 9.500 -23.500
v 17.500 9.500 -23.500
v 17.500 6.500 -22.500
v 20.500 6.500 -22.500
v 20.500 9.500 -22.500
v 17.500 9.500 -22.500
v 17.500 28.500 -23.500
v 20.500 28.500 -23.500
v 20.500 31.500 -23.500
v 17.500 31.500 -23.500
v 17.500 28.500 -22.500
v 20.500 28.500 -22.500
v 20.500 31.500 -22.500
v 17.500 31.500 -22.500
usemtl housing
f 1 2 3 4
usemtl housing
f 5 8 7 6
usemtl housing
f 1 5 6 2
usemtl housing
f 2 6 7 3
usemtl housing
f 3 7 8 4
usemtl housing
f 4 8 5 1
usemtl top
f 9 10 11 12
usemtl top
f 13 16 15 14
usemtl top
f 9 13 14 10
usemtl top
f 10 14 15 11
usemtl top
f 11 15 16 12
usemtl top
f 12 16 13 9
usemtl screen_frame
f 17 18 19 20
usemtl screen_frame
f 21 24 23 22
usemtl screen_frame
f 17 21 22 18
usemtl screen_frame
f 18 22 23 19
usemtl screen_frame
f 19 23 24 20
usemtl screen_frame
f 20 24 21 17
usemtl screen_glass
f 25 26 27 28
usemtl screen_glass
f 29 32 31 30
usemtl screen_glass
f 25 29 30 26
usemtl screen_glass
f 26 30 31 27
usemtl screen_glass
f 27 31 32 28
usemtl screen_glass
f 28 32 29 25
usemtl charge_green
f 33 34 35 36
usemtl charge_green
f 37 40 39 38
usemtl charge_green
f 33 37 38 34
usemtl charge_green
f 34 38 39 35
usemtl charge_green
f 35 39 40 36
usemtl charge_green
f 36 40 37 33
usemtl charge_green
f 41 42 43 44
usemtl charge_green
f 45 48 47 46
usemtl charge_green
f 41 45 46 42
usemtl charge_green
f 42 46 47 43
usemtl charge_green
f 43 47 48 44
usemtl charge_green
f 44 48 45 41
usemtl charge_green
f 49 50 51 52
usemtl charge_green
f 53 56 55 54
usemtl charge_green
f 49 53 54 50
usemtl charge_green
f 50 54 55 51
usemtl charge_green
f 51 55 56 52
usemtl charge_green
f 52 56 53 49
usemtl charge_green
f 57 58 59 60
usemtl charge_green
f 61 64 63 62
usemtl charge_green
f 57 61 62 58
usemtl charge_green
f 58 62 63 59
usemtl charge_green
f 59 63 64 60
usemtl charge_green
f 60 64 61 57
usemtl charge_green
f 65 66 67 68
usemtl charge_green
f 69 72 71 70
usemtl charge_green
f 65 69 70 66
usemtl charge_green
f 66 70 71 67
usemtl charge_green
f 67 71 72 68
usemtl charge_green
f 68 72 69 65
usemtl warning
f 73 74 75 76
usemtl warning
f 77 80 79 78
usemtl warning
f 73 77 78 74
usemtl warning
f 74 78 79 75
usemtl warning
f 75 79 80 76
usemtl warning
f 76 80 77 73
usemtl terminal
f 81 82 83 84
usemtl terminal
f 85 88 87 86
usemtl terminal
f 81 85 86 82
usemtl terminal
f 82 86 87 83
usemtl terminal
f 83 87 88 84
usemtl terminal
f 84 88 85 81
usemtl terminal_cap
f 89 90 91 92
usemtl terminal_cap
f 93 96 95 94
usemtl terminal_cap
f 89 93 94 90
usemtl terminal_cap
f 90 94 95 91
usemtl terminal_cap
f 91 95 96 92
usemtl terminal_cap
f 92 96 93 89
usemtl terminal
f 97 98 99 100
usemtl terminal
f 101 104 103 102
usemtl terminal
f 97 101 102 98
usemtl terminal
f 98 102 103 99
usemtl terminal
f 99 103 104 100
usemtl terminal
f 100 104 101 97
usemtl terminal_cap
f 105 106 107 108
usemtl terminal_cap
f 109 112 111 110
usemtl terminal_cap
f 105 109 110 106
usemtl terminal_cap
f 106 110 111 107
usemtl terminal_cap
f 107 111 112 108
usemtl terminal_cap
f 108 112 109 105
usemtl rail
f 113 114 115 116
usemtl rail
f 117 120 119 118
usemtl rail
f 113 117 118 114
usemtl rail
f 114 118 119 115
usemtl rail
f 115 119 120 116
usemtl rail
f 116 120 117 113
usemtl rail
f 121 122 123 124
usemtl rail
f 125 128 127 126
usemtl rail
f 121 125 126 122
usemtl rail
f 122 126 127 123
usemtl rail
f 123 127 128 124
usemtl rail
f 124 128 125 121
usemtl foot
f 129 130 131 132
usemtl foot
f 133 136 135 134
usemtl foot
f 129 133 134 130
usemtl foot
f 130 134 135 131
usemtl foot
f 131 135 136 132
usemtl foot
f 132 136 133 129
usemtl foot
f 137 138 139 140
usemtl foot
f 141 144 143 142
usemtl foot
f 137 141 142 138
usemtl foot
f 138 142 143 139
usemtl foot
f 139 143 144 140
usemtl foot
f 140 144 141 137
usemtl bolt
f 145 146 147 148
usemtl bolt
f 149 152 151 150
usemtl bolt
f 145 149 150 146
usemtl bolt
f 146 150 151 147
usemtl bolt
f 147 151 152 148
usemtl bolt
f 148 152 149 145
usemtl bolt
f 153 154 155 156
usemtl bolt
f 157 160 159 158
usemtl bolt
f 153 157 158 154
usemtl bolt
f 154 158 159 155
usemtl bolt
f 155 159 160 156
usemtl bolt
f 156 160 157 153
usemtl bolt
f 161 162 163 164
usemtl bolt
f 165 168 167 166
usemtl bolt
f 161 165 166 162
usemtl bolt
f 162 166 167 163
usemtl bolt
f 163 167 168 164
usemtl bolt
f 164 168 165 161
usemtl bolt
f 169 170 171 172
usemtl bolt
f 173 176 175 174
usemtl bolt
f 169 173 174 170
usemtl bolt
f 170 174 175 171
usemtl bolt
f 171 175 176 172
usemtl bolt
f 172 176 173 169
